<?xml version="1.0" standalone="no"?><!DOCTYPE svg PUBLIC "-//W3C//DTD SVG 1.1//EN" "http://www.w3.org/Graphics/SVG/1.1/DTD/svg11.dtd"><svg t="1729175101169" class="icon" viewBox="0 0 1024 1024" version="1.1" xmlns="http://www.w3.org/2000/svg" p-id="4263" xmlns:xlink="http://www.w3.org/1999/xlink" width="200" height="200"><path d="M512 64C264.8 64 64 264 64 512s200.8 448 448 448 448-200.8 448-448S759.2 64 512 64z" fill="#1A9BEC" p-id="4264"></path><path d="M430.4 334.4v-49.6c80-69.6 152-121.6 216.8-156.8 21.6 33.6 32 64.8 32 93.6 0 16.8-3.2 35.2-9.6 56-6.4 20.8-28.8 71.2-68 149.6-44 92.8-80 180-108 262.4-28 82.4-40 130.4-36.8 145.6 5.6 26.4 8.8 44 8.8 54.4 0 10.4-3.2 16.8-9.6 18.4-14.4 0-36-8.8-64-27.2s-41.6-43.2-41.6-76c0-52.8 20.8-131.2 63.2-235.2 42.4-104 96-207.2 160.8-309.6-45.6 17.6-93.6 42.4-144 74.4z" fill="#FFFFFF" p-id="4265"></path></svg>